<svg preserveAspectRatio="none" width="100%" height="100%" overflow="visible" style="display: block;" viewBox="0 0 80.7031 80.7031" fill="none" xmlns="http://www.w3.org/2000/svg">
<g id="computer">
<mask id="mask0_0_85" style="mask-type:alpha" maskUnits="userSpaceOnUse" x="0" y="0" width="81" height="81">
<rect id="Bounding box" width="80.7031" height="80.7031" fill="var(--fill-0, #D9D9D9)"/>
</mask>
<g mask="url(#mask0_0_85)">
<path id="computer_2" d="M3.36263 70.6152V63.89H77.3405V70.6152H3.36263ZM13.4505 60.5273C11.6011 60.5273 10.0178 59.8688 8.70081 58.5518C7.38378 57.2348 6.72526 55.6515 6.72526 53.8021V16.8132C6.72526 14.9637 7.38378 13.3805 8.70081 12.0634C10.0178 10.7464 11.6011 10.0879 13.4505 10.0879H67.2526C69.1021 10.0879 70.6853 10.7464 72.0023 12.0634C73.3194 13.3805 73.9779 14.9637 73.9779 16.8132V53.8021C73.9779 55.6515 73.3194 57.2348 72.0023 58.5518C70.6853 59.8688 69.1021 60.5273 67.2526 60.5273H13.4505ZM13.4505 53.8021H67.2526V16.8132H13.4505V53.8021Z" fill="var(--fill-0, #1C1B1F)"/>
</g>
</g>
</svg>
