<svg preserveAspectRatio="none" width="100%" height="100%" overflow="visible" style="display: block;" viewBox="0 0 163.033 163.033" fill="none" xmlns="http://www.w3.org/2000/svg">
<g id="acute">
<mask id="mask0_0_49" style="mask-type:alpha" maskUnits="userSpaceOnUse" x="0" y="0" width="164" height="164">
<rect id="Bounding box" width="163.033" height="163.033" fill="var(--fill-0, #D9D9D9)"/>
</mask>
<g mask="url(#mask0_0_49)">
<path id="acute_2" d="M101.896 135.861C86.7246 135.861 73.8744 130.596 63.3452 120.067C52.816 109.538 47.5513 96.6877 47.5513 81.5166C47.5513 66.4587 52.816 53.6368 63.3452 43.051C73.8744 32.4651 86.7246 27.1722 101.896 27.1722C116.954 27.1722 129.776 32.4651 140.361 43.051C150.947 53.6368 156.24 66.4587 156.24 81.5166C156.24 96.6877 150.947 109.538 140.361 120.067C129.776 130.596 116.954 135.861 101.896 135.861ZM101.896 122.275C113.217 122.275 122.841 118.312 130.766 110.387C138.691 102.462 142.654 92.8384 142.654 81.5166C142.654 70.1949 138.691 60.5714 130.766 52.6461C122.841 44.7209 113.217 40.7583 101.896 40.7583C90.574 40.7583 80.9505 44.7209 73.0253 52.6461C65.1001 60.5714 61.1374 70.1949 61.1374 81.5166C61.1374 92.8384 65.1001 102.462 73.0253 110.387C80.9505 118.312 90.574 122.275 101.896 122.275ZM117.35 106.821L127.03 97.1406L108.689 78.7994V54.3444H95.1027V84.4037L117.35 106.821ZM13.5861 61.1375V47.5514H40.7583V61.1375H13.5861ZM6.79305 88.3097V74.7236H40.7583V88.3097H6.79305ZM13.5861 115.482V101.896H40.7583V115.482H13.5861Z" fill="var(--fill-0, #1C1B1F)"/>
</g>
</g>
</svg>
