<svg preserveAspectRatio="none" width="100%" height="100%" overflow="visible" style="display: block;" viewBox="0 0 127.68 127.68" fill="none" xmlns="http://www.w3.org/2000/svg">
<g id="aq_indoor">
<mask id="mask0_0_95" style="mask-type:alpha" maskUnits="userSpaceOnUse" x="0" y="0" width="128" height="128">
<rect id="Bounding box" width="127.68" height="127.68" fill="var(--fill-0, #D9D9D9)"/>
</mask>
<g mask="url(#mask0_0_95)">
<path id="aq_indoor_2" d="M73.15 90.44C74.9233 90.44 76.6523 90.0853 78.337 89.376C80.0216 88.6666 81.4846 87.6913 82.726 86.45L87.913 81.263L82.327 75.677L77.14 80.864C76.608 81.396 75.9873 81.7728 75.278 81.9945C74.5686 82.2161 73.8593 82.327 73.15 82.327C72.4406 82.327 71.7313 82.2161 71.022 81.9945C70.3126 81.7728 69.692 81.396 69.16 80.864L64.106 75.81C62.8646 74.5686 61.4016 73.6155 59.717 72.9505C58.0323 72.2855 56.3033 71.953 54.53 71.953C52.7566 71.953 51.0276 72.2855 49.343 72.9505C47.6583 73.6155 46.1953 74.5686 44.954 75.81L39.767 80.997L45.353 86.583L50.54 81.396C51.072 80.864 51.6926 80.4871 52.402 80.2655C53.1113 80.0438 53.8206 79.933 54.53 79.933C55.2393 79.933 55.9486 80.0438 56.658 80.2655C57.3673 80.4871 57.988 80.864 58.52 81.396L63.574 86.45C64.8153 87.6913 66.2783 88.6666 67.963 89.376C69.6476 90.0853 71.3766 90.44 73.15 90.44ZM73.15 74.48C74.9233 74.48 76.6523 74.1253 78.337 73.416C80.0216 72.7066 81.4846 71.7313 82.726 70.49L87.913 65.303L82.327 59.717L77.14 64.904C76.608 65.436 75.9873 65.8128 75.278 66.0345C74.5686 66.2561 73.8593 66.367 73.15 66.367C72.4406 66.367 71.7313 66.2561 71.022 66.0345C70.3126 65.8128 69.692 65.436 69.16 64.904L64.106 59.85C62.8646 58.6086 61.4016 57.6555 59.717 56.9905C58.0323 56.3255 56.3033 55.993 54.53 55.993C52.7566 55.993 51.0276 56.3255 49.343 56.9905C47.6583 57.6555 46.1953 58.6086 44.954 59.85L39.767 65.037L45.353 70.623L50.54 65.436C51.072 64.904 51.6926 64.5271 52.402 64.3055C53.1113 64.0838 53.8206 63.973 54.53 63.973C55.2393 63.973 55.9486 64.0838 56.658 64.3055C57.3673 64.5271 57.988 64.904 58.52 65.436L63.574 70.49C64.8153 71.7313 66.2783 72.7066 67.963 73.416C69.6476 74.1253 71.3766 74.48 73.15 74.48ZM73.15 58.52C74.9233 58.52 76.6523 58.1653 78.337 57.456C80.0216 56.7466 81.4846 55.7713 82.726 54.53L87.913 49.343L82.327 43.757L77.14 48.944C76.608 49.476 75.9873 49.8528 75.278 50.0745C74.5686 50.2961 73.8593 50.407 73.15 50.407C72.4406 50.407 71.7313 50.2961 71.022 50.0745C70.3126 49.8528 69.692 49.476 69.16 48.944L64.106 43.89C62.8646 42.6486 61.4016 41.6955 59.717 41.0305C58.0323 40.3655 56.3033 40.033 54.53 40.033C52.7566 40.033 51.0276 40.3655 49.343 41.0305C47.6583 41.6955 46.1953 42.6486 44.954 43.89L39.767 49.077L45.353 54.663L50.54 49.476C51.072 48.944 51.6926 48.5671 52.402 48.3455C53.1113 48.1238 53.8206 48.013 54.53 48.013C55.2393 48.013 55.9486 48.1238 56.658 48.3455C57.3673 48.5671 57.988 48.944 58.52 49.476L63.574 54.53C64.8153 55.7713 66.2783 56.7466 67.963 57.456C69.6476 58.1653 71.3766 58.52 73.15 58.52ZM21.28 106.4V42.56L63.84 10.64L106.4 42.56V106.4H21.28ZM31.92 95.76H95.76V47.88L63.84 23.94L31.92 47.88V95.76Z" fill="var(--fill-0, #1C1B1F)"/>
</g>
</g>
</svg>
