<svg preserveAspectRatio="none" width="100%" height="100%" overflow="visible" style="display: block;" viewBox="0 0 125 125" fill="none" xmlns="http://www.w3.org/2000/svg">
<g id="calendar_clock">
<mask id="mask0_0_98" style="mask-type:alpha" maskUnits="userSpaceOnUse" x="0" y="0" width="125" height="125">
<rect id="Bounding box" width="125" height="125" fill="var(--fill-0, #D9D9D9)"/>
</mask>
<g mask="url(#mask0_0_98)">
<path id="calendar_clock_2" d="M26.0417 41.6667H98.9583V31.25H26.0417V41.6667ZM26.0417 114.583C23.1771 114.583 20.7248 113.563 18.6849 111.523C16.645 109.484 15.625 107.031 15.625 104.167V31.25C15.625 28.3854 16.645 25.9332 18.6849 23.8932C20.7248 21.8533 23.1771 20.8333 26.0417 20.8333H31.25V10.4167H41.6667V20.8333H83.3333V10.4167H93.75V20.8333H98.9583C101.823 20.8333 104.275 21.8533 106.315 23.8932C108.355 25.9332 109.375 28.3854 109.375 31.25V60.8073C107.726 60.026 106.033 59.375 104.297 58.8542C102.561 58.3333 100.781 57.9427 98.9583 57.6823V52.0833H26.0417V104.167H58.8542C59.4618 106.076 60.178 107.899 61.0026 109.635C61.8273 111.372 62.8038 113.021 63.9323 114.583H26.0417ZM75.3255 112.174C70.2474 107.096 67.7083 100.955 67.7083 93.75C67.7083 86.5451 70.2474 80.4037 75.3255 75.3255C80.4036 70.2474 86.5451 67.7083 93.75 67.7083C100.955 67.7083 107.096 70.2474 112.174 75.3255C117.253 80.4037 119.792 86.5451 119.792 93.75C119.792 100.955 117.253 107.096 112.174 112.174C107.096 117.253 100.955 119.792 93.75 119.792C86.5451 119.792 80.4036 117.253 75.3255 112.174ZM102.474 106.12L106.12 102.474L96.3542 92.7083V78.125H91.1458V94.7917L102.474 106.12Z" fill="var(--fill-0, #1C1B1F)"/>
</g>
</g>
</svg>
