<svg preserveAspectRatio="none" width="100%" height="100%" overflow="visible" style="display: block;" viewBox="0 0 188 188" fill="none" xmlns="http://www.w3.org/2000/svg">
<g id="encrypted">
<mask id="mask0_0_36" style="mask-type:alpha" maskUnits="userSpaceOnUse" x="0" y="0" width="188" height="188">
<rect id="Bounding box" width="188" height="188" fill="var(--fill-0, #D9D9D9)"/>
</mask>
<g mask="url(#mask0_0_36)">
<path id="encrypted_2" d="M82.25 117.5H105.75L101.246 92.2375C103.857 90.9319 105.913 89.0389 107.415 86.5583C108.916 84.0778 109.667 81.3361 109.667 78.3333C109.667 74.025 108.133 70.3368 105.065 67.2688C101.997 64.2007 98.3083 62.6667 94 62.6667C89.6917 62.6667 86.0035 64.2007 82.9354 67.2688C79.8674 70.3368 78.3333 74.025 78.3333 78.3333C78.3333 81.3361 79.084 84.0778 80.5854 86.5583C82.0868 89.0389 84.1431 90.9319 86.7542 92.2375L82.25 117.5ZM94 172.333C75.8528 167.764 60.8715 157.352 49.0563 141.098C37.241 124.844 31.3333 106.794 31.3333 86.95V39.1667L94 15.6667L156.667 39.1667V86.95C156.667 106.794 150.759 124.844 138.944 141.098C127.128 157.352 112.147 167.764 94 172.333ZM94 155.883C107.578 151.575 118.806 142.958 127.683 130.033C136.561 117.108 141 102.747 141 86.95V49.9375L94 32.3125L47 49.9375V86.95C47 102.747 51.4389 117.108 60.3167 130.033C69.1944 142.958 80.4222 151.575 94 155.883Z" fill="var(--fill-0, #1C1B1F)"/>
</g>
</g>
</svg>
