<svg preserveAspectRatio="none" width="100%" height="100%" overflow="visible" style="display: block;" viewBox="0 0 188 188" fill="none" xmlns="http://www.w3.org/2000/svg">
<g id="manufacturing">
<mask id="mask0_0_46" style="mask-type:alpha" maskUnits="userSpaceOnUse" x="0" y="0" width="188" height="188">
<rect id="Bounding box" width="188" height="188" fill="var(--fill-0, #D9D9D9)"/>
</mask>
<g mask="url(#mask0_0_46)">
<path id="manufacturing_2" d="M45.8251 94.0001L43.4751 82.2501C41.9084 81.5973 40.4397 80.9119 39.0688 80.1938C37.698 79.4758 36.2945 78.5945 34.8584 77.5501L23.5001 81.0751L15.6668 67.7584L24.6751 59.9251C24.414 58.2279 24.2834 56.5306 24.2834 54.8334C24.2834 53.1362 24.414 51.439 24.6751 49.7418L15.6668 41.9084L23.5001 28.5918L34.8584 32.1168C36.2945 31.0723 37.698 30.1911 39.0688 29.473C40.4397 28.755 41.9084 28.0695 43.4751 27.4168L45.8251 15.6668H61.4918L63.8418 27.4168C65.4084 28.0695 66.8772 28.755 68.248 29.473C69.6188 30.1911 71.0223 31.0723 72.4584 32.1168L83.8168 28.5918L91.6501 41.9084L82.6418 49.7418C82.9029 51.439 83.0334 53.1362 83.0334 54.8334C83.0334 56.5306 82.9029 58.2279 82.6418 59.9251L91.6501 67.7584L83.8168 81.0751L72.4584 77.5501C71.0223 78.5945 69.6188 79.4758 68.248 80.1938C66.8772 80.9119 65.4084 81.5973 63.8418 82.2501L61.4918 94.0001H45.8251ZM64.723 65.898C67.7911 62.83 69.3251 59.1418 69.3251 54.8334C69.3251 50.5251 67.7911 46.8369 64.723 43.7688C61.655 40.7008 57.9668 39.1668 53.6584 39.1668C49.3501 39.1668 45.6619 40.7008 42.5938 43.7688C39.5258 46.8369 37.9918 50.5251 37.9918 54.8334C37.9918 59.1418 39.5258 62.83 42.5938 65.898C45.6619 68.9661 49.3501 70.5001 53.6584 70.5001C57.9668 70.5001 61.655 68.9661 64.723 65.898ZM115.933 180.167L112.408 163.717C110.189 162.933 108.133 161.987 106.24 160.877C104.347 159.767 102.486 158.495 100.658 157.058L84.9918 162.15L74.0251 143.35L86.5584 132.383C86.2973 130.033 86.1668 127.683 86.1668 125.333C86.1668 122.983 86.2973 120.633 86.5584 118.283L74.0251 107.317L84.9918 88.5168L100.658 93.6084C102.486 92.1723 104.347 90.8994 106.24 89.7897C108.133 88.68 110.189 87.7334 112.408 86.9501L115.933 70.5001H137.867L141.392 86.9501C143.611 87.7334 145.667 88.68 147.561 89.7897C149.454 90.8994 151.314 92.1723 153.142 93.6084L168.808 88.5168L179.775 107.317L167.242 118.283C167.503 120.633 167.633 122.983 167.633 125.333C167.633 127.683 167.503 130.033 167.242 132.383L179.775 143.35L168.808 162.15L153.142 157.058C151.314 158.495 149.454 159.767 147.561 160.877C145.667 161.987 143.611 162.933 141.392 163.717L137.867 180.167H115.933ZM126.9 148.833C133.428 148.833 138.976 146.549 143.546 141.979C148.115 137.41 150.4 131.861 150.4 125.333C150.4 118.806 148.115 113.257 143.546 108.688C138.976 104.118 133.428 101.833 126.9 101.833C120.372 101.833 114.824 104.118 110.254 108.688C105.685 113.257 103.4 118.806 103.4 125.333C103.4 131.861 105.685 137.41 110.254 141.979C114.824 146.549 120.372 148.833 126.9 148.833Z" fill="var(--fill-0, #1C1B1F)"/>
</g>
</g>
</svg>
