<svg preserveAspectRatio="none" width="100%" height="100%" overflow="visible" style="display: block;" viewBox="0 0 139.68 139.68" fill="none" xmlns="http://www.w3.org/2000/svg">
<g id="social_distance">
<mask id="mask0_0_82" style="mask-type:alpha" maskUnits="userSpaceOnUse" x="0" y="0" width="140" height="140">
<rect id="Bounding box" width="139.68" height="139.68" fill="var(--fill-0, #D9D9D9)"/>
</mask>
<g mask="url(#mask0_0_82)">
<path id="social_distance_2" d="M34.92 122.22L11.64 98.94L34.92 75.66L43.068 83.808L33.756 93.12H105.924L96.612 83.808L104.76 75.66L128.04 98.94L104.76 122.22L96.612 114.072L105.924 104.76H33.756L43.068 114.072L34.92 122.22ZM11.64 64.02V60.6735C11.64 58.3455 12.2705 56.2115 13.5315 54.2715C14.7925 52.3315 16.5385 50.8765 18.7695 49.9065C21.2915 48.8395 23.8862 48.015 26.5537 47.433C29.2212 46.851 32.01 46.56 34.92 46.56C37.83 46.56 40.6187 46.851 43.2862 47.433C45.9537 48.015 48.5485 48.8395 51.0705 49.9065C53.3015 50.8765 55.0475 52.3315 56.3085 54.2715C57.5695 56.2115 58.2 58.3455 58.2 60.6735V64.02H11.64ZM81.48 64.02V60.6735C81.48 58.3455 82.1105 56.2115 83.3715 54.2715C84.6325 52.3315 86.3785 50.8765 88.6095 49.9065C91.1315 48.8395 93.7262 48.015 96.3937 47.433C99.0612 46.851 101.85 46.56 104.76 46.56C107.67 46.56 110.459 46.851 113.126 47.433C115.794 48.015 118.388 48.8395 120.91 49.9065C123.141 50.8765 124.887 52.3315 126.148 54.2715C127.409 56.2115 128.04 58.3455 128.04 60.6735V64.02H81.48ZM34.92 40.74C31.719 40.74 28.9787 39.6002 26.6992 37.3207C24.4197 35.0412 23.28 32.301 23.28 29.1C23.28 25.899 24.4197 23.1587 26.6992 20.8792C28.9787 18.5997 31.719 17.46 34.92 17.46C38.121 17.46 40.8612 18.5997 43.1407 20.8792C45.4202 23.1587 46.56 25.899 46.56 29.1C46.56 32.301 45.4202 35.0412 43.1407 37.3207C40.8612 39.6002 38.121 40.74 34.92 40.74ZM104.76 40.74C101.559 40.74 98.8187 39.6002 96.5392 37.3207C94.2597 35.0412 93.12 32.301 93.12 29.1C93.12 25.899 94.2597 23.1587 96.5392 20.8792C98.8187 18.5997 101.559 17.46 104.76 17.46C107.961 17.46 110.701 18.5997 112.981 20.8792C115.26 23.1587 116.4 25.899 116.4 29.1C116.4 32.301 115.26 35.0412 112.981 37.3207C110.701 39.6002 107.961 40.74 104.76 40.74Z" fill="var(--fill-0, #1C1B1F)"/>
</g>
</g>
</svg>
